<?xml version="1.0" encoding="UTF-8"?>
<svg xmlns="http://www.w3.org/2000/svg" xmlns:xlink="http://www.w3.org/1999/xlink" width="70px" height="20px" viewBox="0 0 68 20" version="1.1">
<g id="surface1">
<path style=" stroke:none;fill-rule:nonzero;fill:rgb(13.333333%,13.333333%,13.333333%);fill-opacity:1;" d="M 0.441406 15.515625 L 0.441406 7.875 L 9.890625 7.875 L 9.890625 7.425781 L 0.441406 7.425781 L 0.441406 0.453125 L 10.488281 0.453125 L 10.488281 0.0078125 L 0 0.0078125 L 0 15.964844 L 10.578125 15.964844 L 10.578125 15.515625 Z M 19.097656 4.476562 L 15.179688 9.683594 L 11.351562 4.476562 L 10.777344 4.476562 L 14.914062 10.019531 L 10.378906 15.964844 L 10.910156 15.964844 L 15.179688 10.355469 L 19.472656 15.964844 L 20.027344 15.964844 L 15.46875 10.019531 L 19.628906 4.476562 Z M 21.355469 19.898438 L 21.355469 12.746094 L 21.398438 12.746094 C 21.664062 13.789062 22.1875 14.628906 22.96875 15.261719 C 23.75 15.894531 24.746094 16.210938 25.957031 16.210938 C 26.738281 16.210938 27.429688 16.050781 28.035156 15.730469 C 28.640625 15.410156 29.148438 14.972656 29.550781 14.421875 C 29.957031 13.871094 30.269531 13.230469 30.480469 12.5 C 30.695312 11.769531 30.800781 11.003906 30.800781 10.199219 C 30.800781 9.332031 30.691406 8.535156 30.46875 7.804688 C 30.25 7.078125 29.929688 6.441406 29.507812 5.90625 C 29.085938 5.371094 28.578125 4.953125 27.980469 4.65625 C 27.382812 4.355469 26.707031 4.207031 25.957031 4.207031 C 25.382812 4.207031 24.847656 4.292969 24.351562 4.464844 C 23.859375 4.636719 23.417969 4.878906 23.035156 5.191406 C 22.648438 5.507812 22.3125 5.878906 22.039062 6.296875 C 21.757812 6.722656 21.546875 7.1875 21.398438 7.695312 L 21.355469 7.695312 L 21.355469 4.476562 L 20.910156 4.476562 L 20.910156 19.898438 Z M 25.957031 15.785156 C 24.570312 15.785156 23.457031 15.304688 22.613281 14.34375 C 21.773438 13.382812 21.355469 12 21.355469 10.199219 C 21.355469 9.453125 21.457031 8.746094 21.664062 8.074219 C 21.871094 7.402344 22.167969 6.816406 22.558594 6.308594 C 22.949219 5.800781 23.433594 5.398438 24.007812 5.101562 C 24.585938 4.804688 25.234375 4.65625 25.957031 4.65625 C 26.695312 4.65625 27.339844 4.804688 27.894531 5.101562 C 28.445312 5.398438 28.902344 5.804688 29.265625 6.320312 C 29.625 6.835938 29.898438 7.421875 30.082031 8.085938 C 30.269531 8.75 30.359375 9.453125 30.359375 10.199219 C 30.359375 10.867188 30.273438 11.535156 30.105469 12.199219 C 29.9375 12.859375 29.675781 13.457031 29.320312 13.988281 C 28.964844 14.515625 28.511719 14.945312 27.960938 15.28125 C 27.40625 15.617188 26.738281 15.785156 25.957031 15.785156 Z M 33.238281 15.964844 L 33.238281 9.460938 C 33.238281 8.835938 33.324219 8.222656 33.503906 7.628906 C 33.679688 7.03125 33.953125 6.507812 34.320312 6.050781 C 34.691406 5.597656 35.15625 5.238281 35.726562 4.980469 C 36.292969 4.71875 36.96875 4.609375 37.75 4.65625 L 37.75 4.207031 C 37.070312 4.191406 36.476562 4.269531 35.96875 4.429688 C 35.460938 4.59375 35.023438 4.820312 34.652344 5.101562 C 34.285156 5.386719 33.988281 5.714844 33.769531 6.097656 C 33.546875 6.476562 33.382812 6.886719 33.28125 7.316406 L 33.238281 7.316406 L 33.238281 4.476562 L 32.792969 4.476562 L 32.792969 15.964844 Z M 38.304688 10.308594 L 47.820312 10.308594 C 47.847656 9.519531 47.769531 8.761719 47.585938 8.03125 C 47.402344 7.300781 47.105469 6.652344 46.703125 6.085938 C 46.296875 5.519531 45.773438 5.066406 45.128906 4.722656 C 44.488281 4.378906 43.726562 4.207031 42.839844 4.207031 C 42.207031 4.207031 41.585938 4.34375 40.980469 4.609375 C 40.375 4.878906 39.84375 5.269531 39.386719 5.785156 C 38.929688 6.296875 38.5625 6.925781 38.28125 7.671875 C 38 8.417969 37.863281 9.265625 37.863281 10.21875 C 37.863281 11.070312 37.957031 11.863281 38.148438 12.601562 C 38.339844 13.339844 38.636719 13.980469 39.035156 14.523438 C 39.433594 15.066406 39.945312 15.488281 40.570312 15.785156 C 41.199219 16.082031 41.953125 16.226562 42.839844 16.210938 C 44.136719 16.210938 45.230469 15.839844 46.113281 15.105469 C 47 14.367188 47.523438 13.328125 47.6875 11.984375 L 47.242188 11.984375 C 47.050781 13.253906 46.5625 14.203125 45.773438 14.835938 C 44.984375 15.46875 43.992188 15.785156 42.796875 15.785156 C 41.984375 15.785156 41.296875 15.644531 40.738281 15.359375 C 40.175781 15.078125 39.71875 14.691406 39.367188 14.199219 C 39.011719 13.707031 38.75 13.128906 38.582031 12.464844 C 38.410156 11.804688 38.320312 11.085938 38.304688 10.308594 Z M 47.375 9.863281 L 38.304688 9.863281 C 38.347656 9.058594 38.496094 8.335938 38.746094 7.695312 C 38.996094 7.054688 39.324219 6.507812 39.730469 6.050781 C 40.136719 5.597656 40.609375 5.25 41.148438 5.011719 C 41.6875 4.773438 42.265625 4.65625 42.882812 4.65625 C 43.621094 4.65625 44.269531 4.792969 44.832031 5.070312 C 45.390625 5.34375 45.859375 5.71875 46.238281 6.199219 C 46.613281 6.675781 46.898438 7.230469 47.089844 7.863281 C 47.28125 8.496094 47.375 9.164062 47.375 9.863281 Z M 57.003906 7.875 L 57.445312 7.875 C 57.445312 6.59375 57.074219 5.660156 56.339844 5.078125 C 55.601562 4.5 54.597656 4.207031 53.328125 4.207031 C 52.621094 4.207031 52.023438 4.296875 51.535156 4.476562 C 51.050781 4.65625 50.652344 4.886719 50.339844 5.167969 C 50.03125 5.453125 49.8125 5.765625 49.679688 6.109375 C 49.546875 6.449219 49.480469 6.777344 49.480469 7.089844 C 49.480469 7.71875 49.589844 8.214844 49.8125 8.589844 C 50.03125 8.960938 50.378906 9.25 50.851562 9.460938 C 51.175781 9.609375 51.542969 9.742188 51.957031 9.863281 C 52.371094 9.980469 52.847656 10.109375 53.394531 10.242188 C 53.882812 10.363281 54.363281 10.480469 54.832031 10.601562 C 55.304688 10.71875 55.722656 10.878906 56.082031 11.082031 C 56.445312 11.28125 56.742188 11.539062 56.96875 11.851562 C 57.199219 12.164062 57.3125 12.574219 57.3125 13.082031 C 57.3125 13.574219 57.199219 13.988281 56.96875 14.332031 C 56.742188 14.671875 56.445312 14.960938 56.09375 15.171875 C 55.742188 15.386719 55.347656 15.542969 54.910156 15.640625 C 54.476562 15.738281 54.050781 15.785156 53.640625 15.785156 C 52.296875 15.785156 51.265625 15.484375 50.550781 14.878906 C 49.835938 14.277344 49.480469 13.328125 49.480469 12.03125 L 49.035156 12.03125 C 49.035156 13.476562 49.421875 14.535156 50.199219 15.203125 C 50.972656 15.875 52.121094 16.210938 53.640625 16.210938 C 54.125 16.210938 54.617188 16.152344 55.109375 16.042969 C 55.605469 15.929688 56.046875 15.75 56.4375 15.496094 C 56.824219 15.246094 57.152344 14.910156 57.390625 14.511719 C 57.632812 14.109375 57.753906 13.617188 57.753906 13.035156 C 57.753906 12.484375 57.648438 12.039062 57.433594 11.695312 C 57.21875 11.351562 56.941406 11.070312 56.59375 10.847656 C 56.246094 10.621094 55.855469 10.449219 55.421875 10.320312 C 54.984375 10.195312 54.542969 10.070312 54.101562 9.953125 C 53.5625 9.808594 53.019531 9.667969 52.476562 9.527344 C 52.011719 9.40625 51.582031 9.265625 51.183594 9.101562 C 50.800781 8.9375 50.492188 8.703125 50.265625 8.398438 C 50.035156 8.09375 49.921875 7.65625 49.921875 7.089844 C 49.921875 6.988281 49.949219 6.800781 50.007812 6.53125 C 50.070312 6.265625 50.207031 5.992188 50.429688 5.714844 C 50.652344 5.441406 50.992188 5.195312 51.449219 4.980469 C 51.90625 4.761719 52.53125 4.65625 53.328125 4.65625 C 53.875 4.65625 54.371094 4.714844 54.824219 4.832031 C 55.273438 4.953125 55.660156 5.144531 55.984375 5.402344 C 56.308594 5.664062 56.558594 5.996094 56.738281 6.398438 C 56.914062 6.800781 57.003906 7.292969 57.003906 7.875 Z M 67.246094 7.875 L 67.691406 7.875 C 67.691406 6.59375 67.320312 5.660156 66.582031 5.078125 C 65.847656 4.5 64.84375 4.207031 63.574219 4.207031 C 62.867188 4.207031 62.269531 4.296875 61.78125 4.476562 C 61.296875 4.65625 60.898438 4.886719 60.585938 5.167969 C 60.277344 5.453125 60.054688 5.765625 59.921875 6.109375 C 59.789062 6.449219 59.722656 6.777344 59.722656 7.089844 C 59.722656 7.71875 59.835938 8.214844 60.054688 8.589844 C 60.277344 8.960938 60.625 9.25 61.097656 9.460938 C 61.421875 9.609375 61.789062 9.742188 62.203125 9.863281 C 62.617188 9.980469 63.09375 10.109375 63.640625 10.242188 C 64.128906 10.363281 64.605469 10.480469 65.078125 10.601562 C 65.550781 10.71875 65.96875 10.878906 66.328125 11.082031 C 66.691406 11.28125 66.984375 11.539062 67.214844 11.851562 C 67.441406 12.164062 67.558594 12.574219 67.558594 13.082031 C 67.558594 13.574219 67.441406 13.988281 67.214844 14.332031 C 66.988281 14.671875 66.6875 14.960938 66.339844 15.171875 C 65.984375 15.386719 65.589844 15.542969 65.15625 15.640625 C 64.722656 15.738281 64.296875 15.785156 63.882812 15.785156 C 62.542969 15.785156 61.511719 15.484375 60.796875 14.878906 C 60.082031 14.277344 59.722656 13.328125 59.722656 12.03125 L 59.28125 12.03125 C 59.28125 13.476562 59.667969 14.535156 60.441406 15.203125 C 61.21875 15.875 62.363281 16.210938 63.882812 16.210938 C 64.371094 16.210938 64.863281 16.152344 65.355469 16.042969 C 65.851562 15.929688 66.292969 15.75 66.683594 15.496094 C 67.070312 15.246094 67.398438 14.910156 67.636719 14.511719 C 67.878906 14.109375 68 13.617188 68 13.035156 C 68 12.484375 67.894531 12.039062 67.679688 11.695312 C 67.464844 11.351562 67.183594 11.070312 66.839844 10.847656 C 66.492188 10.621094 66.101562 10.449219 65.664062 10.320312 C 65.226562 10.195312 64.789062 10.070312 64.347656 9.953125 C 63.808594 9.808594 63.265625 9.667969 62.722656 9.527344 C 62.257812 9.40625 61.828125 9.265625 61.429688 9.101562 C 61.042969 8.9375 60.738281 8.703125 60.507812 8.398438 C 60.28125 8.09375 60.167969 7.65625 60.167969 7.089844 C 60.167969 6.988281 60.195312 6.800781 60.253906 6.53125 C 60.3125 6.265625 60.453125 5.992188 60.675781 5.714844 C 60.898438 5.441406 61.234375 5.195312 61.695312 4.980469 C 62.152344 4.761719 62.777344 4.65625 63.574219 4.65625 C 64.121094 4.65625 64.617188 4.714844 65.066406 4.832031 C 65.519531 4.953125 65.90625 5.144531 66.230469 5.402344 C 66.554688 5.664062 66.804688 5.996094 66.980469 6.398438 C 67.160156 6.800781 67.246094 7.292969 67.246094 7.875 Z M 67.246094 7.875 "/>
</g>
</svg>
