<?xml version="1.0" encoding="UTF-8"?>
<svg xmlns="http://www.w3.org/2000/svg" xmlns:xlink="http://www.w3.org/1999/xlink" width="30px" viewBox="0 0 30 30" version="1.1">
<g id="surface1">
<path style=" stroke:none;fill-rule:nonzero;fill:rgb(13.333333%,13.333333%,13.333333%);fill-opacity:1;" d="M 0 0 L 19.996094 0 L 19.996094 19.996094 L 0 19.996094 Z M 0 0 "/>
<path style=" stroke:none;fill-rule:nonzero;fill:rgb(0%,84.705882%,100%);fill-opacity:1;" d="M 11.65625 9.988281 C 11.65625 10.910156 10.90625 11.660156 9.984375 11.660156 C 9.058594 11.660156 8.3125 10.910156 8.3125 9.988281 C 8.3125 9.0625 9.058594 8.3125 9.984375 8.3125 C 10.90625 8.3125 11.65625 9.0625 11.65625 9.988281 Z M 11.65625 9.988281 "/>
<path style="fill:none;stroke-width:144.7456;stroke-linecap:butt;stroke-linejoin:miter;stroke:rgb(0%,84.705882%,100%);stroke-opacity:1;stroke-miterlimit:10;" d="M 1806.668898 1191.722912 C 2212.391883 1191.722912 2589.841488 1250.390173 2874.695778 1347.933329 C 3217.510495 1465.974685 3428.147166 1644.803805 3428.147166 1806.668898 C 3428.147166 1975.602336 3204.787475 2165.740808 2836.526717 2287.316336 C 2558.740772 2379.911651 2191.893683 2427.976395 1806.668898 2427.976395 C 1410.841597 2427.976395 1036.926164 2382.738989 754.899211 2286.609502 C 399.361474 2165.033973 184.483796 1972.774998 184.483796 1806.668898 C 184.483796 1646.217474 385.931619 1468.802023 723.798494 1350.760667 C 1009.359619 1251.097007 1395.998073 1191.722912 1806.668898 1191.722912 Z M 1806.668898 1191.722912 " transform="matrix(0.0055264,0,0,0.0055264,0,0)"/>
<path style="fill:none;stroke-width:144.7456;stroke-linecap:butt;stroke-linejoin:miter;stroke:rgb(0%,84.705882%,100%);stroke-opacity:1;stroke-miterlimit:10;" d="M 1270.888372 1501.316409 C 1473.749864 1149.312844 1712.659914 851.735533 1939.553778 653.821882 C 2213.805552 415.618667 2473.920635 323.023352 2613.87386 403.602481 C 2760.188595 487.715782 2813.20118 776.104245 2734.742554 1156.381188 C 2676.075293 1443.355982 2534.7084 1784.75703 2341.74259 2119.089733 C 2144.535774 2461.197615 1918.348744 2763.015933 1694.282218 2958.80908 C 1410.841597 3206.907978 1137.296658 3296.675955 993.809261 3213.269488 C 854.562871 3133.397193 801.550286 2870.454772 867.992726 2518.451207 C 924.539483 2220.873896 1065.906377 1856.147311 1270.888372 1501.316409 Z M 1270.888372 1501.316409 " transform="matrix(0.0055264,0,0,0.0055264,0,0)"/>
<path style="fill:none;stroke-width:144.7456;stroke-linecap:butt;stroke-linejoin:miter;stroke:rgb(0%,84.705882%,100%);stroke-opacity:1;stroke-miterlimit:10;" d="M 1271.595207 2119.796567 C 1068.02688 1768.499837 929.487324 1412.255266 871.526898 1116.798458 C 801.550286 761.260721 851.028699 489.129451 990.981923 407.843488 C 1137.296658 323.730186 1413.668935 421.273343 1703.471066 679.267923 C 1923.296585 873.647402 2148.069946 1166.276871 2341.035756 1499.90274 C 2539.656241 1842.717456 2688.091479 2189.066345 2745.345071 2480.98898 C 2818.855856 2849.956572 2759.48176 3131.983525 2616.701198 3214.683157 C 2477.454808 3295.262286 2222.9944 3210.44215 1951.569964 2977.186776 C 1721.848762 2779.273125 1477.284037 2474.62747 1271.595207 2119.796567 Z M 1271.595207 2119.796567 " transform="matrix(0.0055264,0,0,0.0055264,0,0)"/>
</g>
</svg>
